<svg width="256" height="256" viewBox="0 0 256 256" fill="none" xmlns="http://www.w3.org/2000/svg">
  <defs>
    <linearGradient id="bgGradient" x1="36" y1="24" x2="222" y2="236" gradientUnits="userSpaceOnUse">
      <stop stop-color="#0F172A" />
      <stop offset="0.52" stop-color="#1D4ED8" />
      <stop offset="1" stop-color="#14B8A6" />
    </linearGradient>
    <linearGradient id="panelGradient" x1="72" y1="56" x2="184" y2="204" gradientUnits="userSpaceOnUse">
      <stop stop-color="white" stop-opacity="0.96" />
      <stop offset="1" stop-color="#DBEAFE" stop-opacity="0.88" />
    </linearGradient>
    <linearGradient id="accentGradient" x1="112" y1="86" x2="150" y2="170" gradientUnits="userSpaceOnUse">
      <stop stop-color="#2563EB" />
      <stop offset="1" stop-color="#0F766E" />
    </linearGradient>
    <filter id="shadow" x="8" y="8" width="240" height="240" filterUnits="userSpaceOnUse" color-interpolation-filters="sRGB">
      <feFlood flood-opacity="0" result="BackgroundImageFix"/>
      <feColorMatrix in="SourceAlpha" type="matrix" values="0 0 0 0 0 0 0 0 0 0 0 0 0 0 0 0 0 0 127 0" result="hardAlpha"/>
      <feOffset dy="12"/>
      <feGaussianBlur stdDeviation="16"/>
      <feColorMatrix type="matrix" values="0 0 0 0 0.0588235 0 0 0 0 0.0901961 0 0 0 0 0.164706 0 0 0 0.28 0"/>
      <feBlend mode="normal" in2="BackgroundImageFix" result="effect1_dropShadow_1_1"/>
      <feBlend mode="normal" in="SourceGraphic" in2="effect1_dropShadow_1_1" result="shape"/>
    </filter>
  </defs>

  <g filter="url(#shadow)">
    <rect x="24" y="24" width="208" height="208" rx="56" fill="url(#bgGradient)"/>
    <rect x="56" y="56" width="144" height="144" rx="34" fill="url(#panelGradient)" fill-opacity="0.94"/>
    <rect x="56.75" y="56.75" width="142.5" height="142.5" rx="33.25" stroke="white" stroke-opacity="0.18" stroke-width="1.5"/>

    <path d="M95 92C84.5066 99.0235 79.25 109.416 79.25 123.176C79.25 136.936 84.5066 147.329 95 154.352" stroke="#E2E8F0" stroke-width="14" stroke-linecap="round" stroke-linejoin="round"/>
    <path d="M161 92C171.493 99.0235 176.75 109.416 176.75 123.176C176.75 136.936 171.493 147.329 161 154.352" stroke="#E2E8F0" stroke-width="14" stroke-linecap="round" stroke-linejoin="round"/>

    <path d="M129.826 84L139.689 108.311L164 118.174L139.689 128.037L129.826 152.348L119.963 128.037L95.652 118.174L119.963 108.311L129.826 84Z" fill="url(#accentGradient)"/>
    <circle cx="129.826" cy="118.174" r="12" fill="white" fill-opacity="0.94"/>

    <circle cx="169" cy="84" r="7" fill="#F8FAFC" fill-opacity="0.84"/>
    <circle cx="181" cy="99" r="4" fill="#BFDBFE" fill-opacity="0.9"/>
    <circle cx="87" cy="171" r="5" fill="#CCFBF1" fill-opacity="0.86"/>
  </g>
</svg>
